# xmcd
#
# Track frame offsets: 
#        150
#        18943
#        38852
#        54943
#        67279
#        86401
#        105637
#        128128
#        147270
#        170229
#        187323
#        206146
#        223338
#        242164
#        264449
#        291648
#        313561
#        329155
#
# Disc length: 4698 seconds
#
# Revision: 0
# Processed by: cddbd v1.5.2PL0 Copyright (c) Steve Scherf et al.
# Submitted via: ExactAudioCopyFreeDBPlugin 1.0
#
DISCID=2b125812
DTITLE=歌星 - 中华歌典90年代 突飞猛进的时代 2CD-1　
DYEAR=1900
DGENRE=
TTITLE0=张也 - 走进新时代
TTITLE1=蔡国庆 - 同一首歌
TTITLE2=张也 - 万事如意
TTITLE3=阎维文 - 一二三四歌
TTITLE4=高枫 - 大中国
TTITLE5=陈少华 - 九月九的酒
TTITLE6=于文华、尹相杰 - 天不下雨天不刮风天上有太阳
TTITLE7=周冰倩 - 真的好想你
TTITLE8=臧天朔 - 朋友
TTITLE9=老狼 - 同桌的你
TTITLE10=谢东 - 笑脸
TTITLE11=万芳 - 摇太阳
TTITLE12=郭峰、陈洁仪 - 心会跟爱一起走
TTITLE13=江珊 - 梦里水乡
TTITLE14=彭丽媛 - 白发亲娘
TTITLE15=陈红 - 常回家看看
TTITLE16=白雪 - 久别的人
TTITLE17=周子寒 - 吻和泪
EXTD=
EXTT0=
EXTT1=
EXTT2=
EXTT3=
EXTT4=
EXTT5=
EXTT6=
EXTT7=
EXTT8=
EXTT9=
EXTT10=
EXTT11=
EXTT12=
EXTT13=
EXTT14=
EXTT15=
EXTT16=
EXTT17=
PLAYORDER=
